<svg xmlns="http://www.w3.org/2000/svg" width="500" height="500" viewBox="-250,-250,500,500" style="max-width: 100%; height: auto;"><g><path fill="rgb(66, 136, 181)" d="M0.6,-248.999A249,249,0,0,1,233.452,-86.609L156.973,-58.445A167.5,167.5,0,0,0,0.6,-167.499Z"><title>AC: 14</title></path><path fill="rgb(98, 184, 170)" d="M233.867,-85.483A249,249,0,0,1,25.136,247.728L17.104,166.624A167.5,167.5,0,0,0,157.387,-57.319Z"><title>AU: 21</title></path><path fill="rgb(155, 215, 163)" d="M23.942,247.846A249,249,0,0,1,-18.98,248.276L-12.572,167.028A167.5,167.5,0,0,0,15.91,166.743Z"><title>CA: 2</title></path><path fill="rgb(209, 236, 158)" d="M-20.177,248.181A249,249,0,0,1,-202.165,145.363L-135.879,97.944A167.5,167.5,0,0,0,-13.769,166.933Z"><title>CM: 10</title></path><path fill="rgb(243, 249, 172)" d="M-202.863,144.387A249,249,0,0,1,-239.809,67.026L-161.264,45.277A167.5,167.5,0,0,0,-136.578,96.968Z"><title>IA: 4</title></path><path fill="rgb(254, 240, 165)" d="M-240.13,65.869A249,249,0,0,1,-248.237,-19.477L-167.002,-12.906A167.5,167.5,0,0,0,-161.585,44.12Z"><title>RA: 4</title></path><path fill="rgb(254, 206, 126)" d="M-248.14,-20.673A249,249,0,0,1,-240.903,-62.983L-162.103,-42.178A167.5,167.5,0,0,0,-166.905,-14.103Z"><title>SA: 2</title></path><path fill="rgb(250, 158, 91)" d="M-240.596,-64.144A249,249,0,0,1,-161.189,-189.787L-108.58,-127.541A167.5,167.5,0,0,0,-161.796,-43.339Z"><title>SC: 7</title></path><path fill="rgb(238, 106, 73)" d="M-160.272,-190.562A249,249,0,0,1,-23.154,-247.921L-15.771,-166.756A167.5,167.5,0,0,0,-107.663,-128.315Z"><title>SI: 7</title></path><path fill="rgb(209, 60, 75)" d="M-21.958,-248.03A249,249,0,0,1,-0.6,-248.999L-0.6,-167.499A167.5,167.5,0,0,0,-14.575,-166.865Z"><title>SR: 1</title></path></g><g font-family="Roboto" font-size="12" text-anchor="middle"><text transform="translate(119.12485741539606,-170.8137314321116)"><tspan y="-0.4em" font-weight="bold">AC</tspan><tspan x="0" y="0.7em" fill-opacity="0.7">14</tspan></text><text transform="translate(176.48280051673208,110.55262828974871)"><tspan y="-0.4em" font-weight="bold">AU</tspan><tspan x="0" y="0.7em" fill-opacity="0.7">21</tspan></text><text transform="translate(2.082465291840269,208.23958758677054)"><tspan y="-0.4em" font-weight="bold">CA</tspan><tspan x="0" y="0.7em" fill-opacity="0.7">2</tspan></text><text transform="translate(-102.437224539281,181.31375438363446)"><tspan y="-0.4em" font-weight="bold">CM</tspan><tspan x="0" y="0.7em" fill-opacity="0.7">10</tspan></text><text transform="translate(-187.9189320506351,89.74707503283206)"><tspan y="-0.4em" font-weight="bold">IA</tspan><tspan x="0" y="0.7em" fill-opacity="0.7">4</tspan></text><text transform="translate(-207.3166804970216,19.69407239998538)"><tspan y="-0.4em" font-weight="bold">RA</tspan><tspan x="0" y="0.7em" fill-opacity="0.7">4</tspan></text><text transform="translate(-205.26836417634772,-35.1135467927449)"><tspan y="-0.4em" font-weight="bold">SA</tspan><tspan x="0" y="0.7em" fill-opacity="0.7">2</tspan></text><text transform="translate(-176.03917932227884,-111.25767318948637)"><tspan y="-0.4em" font-weight="bold">SC</tspan><tspan x="0" y="0.7em" fill-opacity="0.7">7</tspan></text><text transform="translate(-80.36672798526858,-192.1178063921766)"><tspan y="-0.4em" font-weight="bold">SI</tspan><tspan x="0" y="0.7em" fill-opacity="0.7">7</tspan></text><text transform="translate(-9.442035190104647,-208.03583939184333)"><tspan y="-0.4em" font-weight="bold">SR</tspan><tspan x="0" y="0.7em" fill-opacity="0.7">1</tspan></text></g></svg>