<svg xmlns="http://www.w3.org/2000/svg" width="500" height="500" viewBox="-250,-250,500,500" style="max-width: 100%; height: auto;"><g><path fill="rgb(66, 136, 181)" d="M0.6,-248.999A249,249,0,0,1,223.738,-109.281L150.42,-73.689A167.5,167.5,0,0,0,0.6,-167.499Z"><title>AC: 15</title></path><path fill="rgb(98, 184, 170)" d="M224.262,-108.201A249,249,0,0,1,110.622,223.078L74.59,149.975A167.5,167.5,0,0,0,150.944,-72.609Z"><title>AU: 21</title></path><path fill="rgb(155, 215, 163)" d="M109.545,223.609A249,249,0,0,1,75.415,237.305L50.918,159.573A167.5,167.5,0,0,0,73.513,150.506Z"><title>CA: 2</title></path><path fill="rgb(209, 236, 158)" d="M74.27,237.666A249,249,0,0,1,-88.929,232.578L-59.638,156.523A167.5,167.5,0,0,0,49.773,159.934Z"><title>CM: 9</title></path><path fill="rgb(243, 249, 172)" d="M-90.049,232.147A249,249,0,0,1,-138.984,206.602L-93.33,139.089A167.5,167.5,0,0,0,-60.758,156.092Z"><title>IA: 3</title></path><path fill="rgb(254, 240, 165)" d="M-139.979,205.93A249,249,0,0,1,-194.034,156.051L-130.402,105.127A167.5,167.5,0,0,0,-94.325,138.416Z"><title>RA: 4</title></path><path fill="rgb(254, 206, 126)" d="M-194.784,155.113A249,249,0,0,1,-215.506,124.732L-144.87,84.076A167.5,167.5,0,0,0,-131.152,104.19Z"><title>SA: 2</title></path><path fill="rgb(250, 158, 91)" d="M-216.105,123.692A249,249,0,0,1,-156.438,-193.722L-105.387,-130.191A167.5,167.5,0,0,0,-145.469,83.036Z"><title>SC: 19</title></path><path fill="rgb(238, 106, 73)" d="M-155.503,-194.473A249,249,0,0,1,-20.081,-248.189L-13.704,-166.938A167.5,167.5,0,0,0,-104.452,-130.943Z"><title>SI: 8</title></path><path fill="rgb(209, 60, 75)" d="M-18.884,-248.283A249,249,0,0,1,-0.6,-248.999L-0.6,-167.499A167.5,167.5,0,0,0,-12.507,-167.032Z"><title>SR: 1</title></path></g><g font-family="Roboto" font-size="12" text-anchor="middle"><text transform="translate(110.5184527554425,-176.5042042007584)"><tspan y="-0.4em" font-weight="bold">AC</tspan><tspan x="0" y="0.7em" fill-opacity="0.7">15</tspan></text><text transform="translate(196.98250174558947,67.57186179208651)"><tspan y="-0.4em" font-weight="bold">AU</tspan><tspan x="0" y="0.7em" fill-opacity="0.7">21</tspan></text><text transform="translate(77.55703210953459,193.2691627507105)"><tspan y="-0.4em" font-weight="bold">CA</tspan><tspan x="0" y="0.7em" fill-opacity="0.7">2</tspan></text><text transform="translate(-6.488398231950125,208.148896678276)"><tspan y="-0.4em" font-weight="bold">CM</tspan><tspan x="0" y="0.7em" fill-opacity="0.7">9</tspan></text><text transform="translate(-96.36931265353176,184.6104495381717)"><tspan y="-0.4em" font-weight="bold">IA</tspan><tspan x="0" y="0.7em" fill-opacity="0.7">3</tspan></text><text transform="translate(-141.22380592946902,153.04868225109183)"><tspan y="-0.4em" font-weight="bold">RA</tspan><tspan x="0" y="0.7em" fill-opacity="0.7">4</tspan></text><text transform="translate(-172.04187660112453,117.34417410150128)"><tspan y="-0.4em" font-weight="bold">SA</tspan><tspan x="0" y="0.7em" fill-opacity="0.7">2</tspan></text><text transform="translate(-204.6654136291165,-38.47247020952318)"><tspan y="-0.4em" font-weight="bold">SC</tspan><tspan x="0" y="0.7em" fill-opacity="0.7">19</tspan></text><text transform="translate(-76.78333706463852,-193.57784390063372)"><tspan y="-0.4em" font-weight="bold">SI</tspan><tspan x="0" y="0.7em" fill-opacity="0.7">8</tspan></text><text transform="translate(-8.153364015758523,-208.09032931692556)"><tspan y="-0.4em" font-weight="bold">SR</tspan></text></g></svg>