<svg xmlns="http://www.w3.org/2000/svg" width="500" height="500" viewBox="-250,-250,500,500" style="max-width: 100%; height: auto;"><g><path fill="rgb(66, 136, 181)" d="M0.6,-248.999A249,249,0,0,1,238.705,-70.857L160.519,-47.853A167.5,167.5,0,0,0,0.6,-167.499Z"><title>AC: 16</title></path><path fill="rgb(98, 184, 170)" d="M239.044,-69.705A249,249,0,0,1,3.588,248.974L2.61,167.48A167.5,167.5,0,0,0,160.858,-46.701Z"><title>AU: 23</title></path><path fill="rgb(155, 215, 163)" d="M2.388,248.989A249,249,0,0,1,-17.324,248.397L-11.458,167.108A167.5,167.5,0,0,0,1.41,167.494Z"><title>CA: 1</title></path><path fill="rgb(209, 236, 158)" d="M-18.521,248.31A249,249,0,0,1,-190.965,159.792L-128.334,107.641A167.5,167.5,0,0,0,-12.655,167.021Z"><title>CM: 10</title></path><path fill="rgb(243, 249, 172)" d="M-191.733,158.869A249,249,0,0,1,-231.915,90.644L-155.936,61.158A167.5,167.5,0,0,0,-129.102,106.719Z"><title>IA: 4</title></path><path fill="rgb(254, 240, 165)" d="M-232.349,89.525A249,249,0,0,1,-233.752,-85.796L-157.31,-57.53A167.5,167.5,0,0,0,-156.37,60.039Z"><title>RA: 9</title></path><path fill="rgb(254, 206, 126)" d="M-233.336,-86.922A249,249,0,0,1,-206.084,-139.751L-138.741,-93.847A167.5,167.5,0,0,0,-156.894,-58.656Z"><title>SA: 3</title></path><path fill="rgb(250, 158, 91)" d="M-205.408,-140.743A249,249,0,0,1,-99.394,-228.302L-67.042,-153.498A167.5,167.5,0,0,0,-138.065,-94.839Z"><title>SC: 7</title></path><path fill="rgb(238, 106, 73)" d="M-98.292,-228.779A249,249,0,0,1,-21.5,-248.07L-14.658,-166.857A167.5,167.5,0,0,0,-65.94,-153.975Z"><title>SI: 4</title></path><path fill="rgb(209, 60, 75)" d="M-20.303,-248.171A249,249,0,0,1,-0.6,-248.999L-0.6,-167.499A167.5,167.5,0,0,0,-13.462,-166.958Z"><title>SR: 1</title></path></g><g font-family="Roboto" font-size="12" text-anchor="middle"><text transform="translate(124.75425706748626,-166.74662768265978)"><tspan y="-0.4em" font-weight="bold">AC</tspan><tspan x="0" y="0.7em" fill-opacity="0.7">16</tspan></text><text transform="translate(167.49214730362553,123.75153773436759)"><tspan y="-0.4em" font-weight="bold">AU</tspan><tspan x="0" y="0.7em" fill-opacity="0.7">23</tspan></text><text transform="translate(-6.250813183427715,208.15616693854133)"><tspan y="-0.4em" font-weight="bold">CA</tspan><tspan x="0" y="0.7em" fill-opacity="0.7">1</tspan></text><text transform="translate(-95.10088648821078,185.26706099346546)"><tspan y="-0.4em" font-weight="bold">CM</tspan><tspan x="0" y="0.7em" fill-opacity="0.7">10</tspan></text><text transform="translate(-179.4406118741441,105.68410150175272)"><tspan y="-0.4em" font-weight="bold">IA</tspan><tspan x="0" y="0.7em" fill-opacity="0.7">4</tspan></text><text transform="translate(-208.24333603554126,1.6659822293904114)"><tspan y="-0.4em" font-weight="bold">RA</tspan><tspan x="0" y="0.7em" fill-opacity="0.7">9</tspan></text><text transform="translate(-185.07648881329192,-95.47123016146506)"><tspan y="-0.4em" font-weight="bold">SA</tspan><tspan x="0" y="0.7em" fill-opacity="0.7">3</tspan></text><text transform="translate(-132.61461132933138,-160.5659595367909)"><tspan y="-0.4em" font-weight="bold">SC</tspan><tspan x="0" y="0.7em" fill-opacity="0.7">7</tspan></text><text transform="translate(-50.73910506032545,-201.97426993970606)"><tspan y="-0.4em" font-weight="bold">SI</tspan><tspan x="0" y="0.7em" fill-opacity="0.7">4</tspan></text><text transform="translate(-8.748177184998118,-208.0661719163879)"><tspan y="-0.4em" font-weight="bold">SR</tspan><tspan x="0" y="0.7em" fill-opacity="0.7">1</tspan></text></g></svg>